<svg xmlns="http://www.w3.org/2000/svg" xmlns:xlink="http://www.w3.org/1999/xlink" version="1.1" id="Capa_1" x="0px" y="0px" viewBox="0 0 29.9 29.7" style="enable-background:new 0 0 29.9 29.7;" xml:space="preserve" width="34"  height="34" >
<style type="text/css">
	.st0{fill:#FFFFFF;}
</style>
<g id="Capa_2_1_">
	<g id="Capa_1-2">
		<path class="st0" d="M27.7,25.6L27.7,25.6l-17.3-0.1c-2.1,0-3.8-1.6-3.8-3.7V4.4L0.3,0.9C0,0.8-0.1,0.5,0.1,0.3    C0.2,0,0.5-0.1,0.7,0.1l6.9,3.7v0.3v17.6c0,1.5,1.3,2.7,2.8,2.7c0,0,0,0,0,0l17.2,0.1c0.3,0,0.5,0.2,0.5,0.5S27.9,25.6,27.7,25.6    L27.7,25.6z"/>
		<path class="st0" d="M12.6,29.7c-1.4,0-2.5-1.2-2.5-2.6c0-1.4,1.2-2.5,2.6-2.5c1.4,0,2.5,1.2,2.5,2.6C15.2,28.5,14,29.7,12.6,29.7    z M12.6,25.5c-0.9,0-1.5,0.8-1.5,1.6c0,0.9,0.8,1.5,1.6,1.5c0.8,0,1.5-0.7,1.5-1.6C14.2,26.2,13.4,25.5,12.6,25.5    C12.6,25.5,12.6,25.5,12.6,25.5z"/>
		<path class="st0" d="M27.3,29.7c-1.4,0-2.5-1.2-2.5-2.6c0-1.4,1.2-2.5,2.6-2.5c1.4,0,2.5,1.2,2.5,2.6    C29.9,28.5,28.7,29.7,27.3,29.7C27.3,29.7,27.3,29.7,27.3,29.7z M27.3,25.5c-0.9,0-1.5,0.8-1.5,1.6s0.8,1.5,1.6,1.5    c0.8,0,1.5-0.7,1.5-1.6C28.9,26.2,28.2,25.5,27.3,25.5z"/>
		<path class="st0" d="M23.7,20.6h-17v-14l20.5,2.7c0.7,0.1,1.2,0.7,1.2,1.4v4.2C28.5,18,26.3,20.6,23.7,20.6z M7.7,19.6h16    c2.1,0,3.8-2.1,3.8-4.7v-4.2c0-0.2-0.2-0.3-0.3-0.4L7.7,7.7L7.7,19.6z"/>
	</g>
</g>
</svg>